Coordinates
version=1
nRows=5
nColumns=40
inDegrees=yes

Units are S.I. units (second, meters, Newtons, ...)
If the header above contains a line with 'inDegrees', this indicates whether rotational values are in degrees (yes) or radians (no).

endheader
time	pelvis_tilt	pelvis_list	pelvis_rotation	pelvis_tx	pelvis_ty	pelvis_tz	hip_flexion_r	hip_adduction_r	hip_rotation_r	knee_angle_r	knee_angle_r_beta	ankle_angle_r	subtalar_angle_r	mtp_angle_r	hip_flexion_l	hip_adduction_l	hip_rotation_l	knee_angle_l	knee_angle_l_beta	ankle_angle_l	subtalar_angle_l	mtp_angle_l	lumbar_extension	lumbar_bending	lumbar_rotation	arm_flex_r	arm_add_r	arm_rot_r	elbow_flex_r	pro_sup_r	wrist_flex_r	wrist_dev_r	arm_flex_l	arm_add_l	arm_rot_l	elbow_flex_l	pro_sup_l	wrist_flex_l	wrist_dev_l
      2.60000000	     -2.61860930	     -5.70732459	     -2.36569467	     -0.37015750	      1.01588940	     -1.05246787	     48.03658533	      0.62090778	     -5.73987229	      5.81637423	      0.10151488	      1.91287590	      0.00000000	      0.00000000	     24.46791662	     -3.58872455	     -2.25124568	     37.53118193	      0.65504270	      2.11394993	      0.00000000	      0.00000000	     -8.24333734	      1.66652589	      2.31899805	     89.95670864	    -11.36342733	     18.55546537	     38.61329578	     60.10830565	      0.00000000	      0.00000000	     89.93827921	    -33.61522000	     10.67096221	     41.36911677	     80.08597303	      0.00000000	      0.00000000
      2.60500000	     -2.61156541	     -5.69087086	     -2.36154771	     -0.37064488	      1.01540916	     -1.05250446	     48.10859963	      0.62129036	     -5.74151811	      5.83726152	      0.10187943	      1.92868850	      0.00000000	      0.00000000	     24.57683313	     -3.57117345	     -2.24489763	     37.70368642	      0.65805347	      2.16732502	      0.00000000	      0.00000000	     -8.28219800	      1.66311093	      2.35151524	     89.95682220	    -11.35369917	     18.52021979	     38.68355976	     59.99291264	      0.00000000	      0.00000000	     89.93853435	    -33.56652779	     10.57831214	     41.40664057	     79.95780827	      0.00000000	      0.00000000
      2.61000000	     -2.58316392	     -5.70214116	     -2.34604563	     -0.37101397	      1.01503739	     -1.05256455	     48.15140477	      0.63751252	     -5.81442306	      5.84604686	      0.10203277	      1.95195050	      0.00000000	      0.00000000	     24.64270871	     -3.58003761	     -2.20915337	     37.85353295	      0.66066878	      2.25630598	      0.00000000	      0.00000000	     -8.34995993	      1.68234954	      2.38483960	     89.95700019	    -11.36032203	     18.48050836	     38.76144323	     59.86653668	      0.00000000	      0.00000000	     89.93871998	    -33.52968308	     10.57215719	     41.47513842	     79.69041417	      0.00000000	      0.00000000
      2.61500000	     -2.55784875	     -5.67199801	     -2.34608969	     -0.37146041	      1.01462760	     -1.05259115	     48.19506606	      0.63018233	     -5.76810316	      5.85006852	      0.10210296	      2.03526829	      0.00000000	      0.00000000	     24.70978878	     -3.54272809	     -2.19881929	     37.98166460	      0.66290510	      2.30192022	      0.00000000	      0.00000000	     -8.42009961	      1.65631612	      2.44840521	     89.95712089	    -11.36501541	     18.44479018	     38.83081211	     59.52873434	      0.00000000	      0.00000000	     89.93884087	    -33.44221432	     10.44297882	     41.52089402	     79.64244353	      0.00000000	      0.00000000
      2.62000000	     -2.55999446	     -5.67466233	     -2.30138779	     -0.37179209	      1.01415899	     -1.05263118	     48.25468124	      0.63172978	     -5.85416810	      5.84212278	      0.10196428	      2.13722030	      0.00000000	      0.00000000	     24.82396602	     -3.52429610	     -2.13546680	     38.15680425	      0.66596187	      2.39171783	      0.00000000	      0.00000000	     -8.44359570	      1.66551752	      2.42847974	     89.95720169	    -11.36137718	     18.50452208	     38.85002784	     59.13575143	      0.00000000	      0.00000000	     89.93896087	    -33.42706727	     10.41694122	     41.56162041	     79.67894345	      0.00000000	      0.00000000
